<svg width="115" height="46" viewBox="0 0 115 46" fill="none" xmlns="http://www.w3.org/2000/svg">
<g opacity="0.5" clip-path="url(#clip0_1581_2)">
<path fill-rule="evenodd" clip-rule="evenodd" d="M99.1993 15.3638L103.768 28.1123H94.6974L99.1993 15.3638ZM107.397 37.6074H114.049L99.1993 -0.106934L84.4169 37.6074H91.1358L92.6812 33.358H105.784L107.397 37.6074ZM66.3415 31.6314V6.93124C66.3415 6.93124 81.729 4.60735 81.729 19.2813C81.729 33.7564 66.3415 31.6314 66.3415 31.6314ZM60.0926 0.955924V37.6074H66.3418C75.5475 37.6074 87.9781 34.9516 87.9781 19.2813C87.9785 3.01307 75.3455 0.955924 66.3415 0.955924H60.0926ZM39.2626 7.06392H44.235C44.235 7.06392 50.4168 7.06392 50.4168 11.6455C50.4168 15.2311 46.654 16.0279 45.0413 16.2271L39.2626 7.06392ZM58.5473 37.6074L48.468 21.6717C52.0292 20.6774 56.5984 18.1526 56.5984 11.6455C56.5984 0.955238 44.2346 0.955238 44.2346 0.955238H31.8713V7.06392L37.7173 16.2268H31.8713V37.6074H38.0531V22.3358H41.6144L51.2902 37.6074H58.5473ZM15.812 15.3638L20.3139 28.1123H11.3098L15.812 15.3638ZM23.9425 37.6074H30.66L15.812 -0.106934L1.0293 37.6074H7.68164L9.29398 33.358H22.3294L23.9425 37.6074Z" fill="white"/>
<path d="M3.21093 44.2961H1.88449L1.60692 45.0847H0.988281L2.28176 41.7007H2.81574L4.112 45.0843H3.49093L3.21093 44.2961ZM2.05138 43.8223H3.04404L2.54788 42.4183L2.05138 43.8223ZM5.9235 44.6794C6.05338 44.684 6.18024 44.6401 6.27879 44.5563C6.32388 44.5187 6.36055 44.4722 6.38647 44.4197C6.4124 44.3673 6.42701 44.3102 6.42937 44.2519H6.96786C6.96145 44.4088 6.91007 44.5608 6.81971 44.69C6.72465 44.8276 6.59504 44.9383 6.4436 45.0113C6.28461 45.0905 6.10883 45.1312 5.93078 45.1299C5.77292 45.1372 5.61536 45.1102 5.46913 45.051C5.32289 44.9918 5.19152 44.9017 5.08419 44.7871C4.86306 44.5229 4.75147 44.1858 4.77192 43.8435V43.7873C4.75504 43.4533 4.86588 43.1251 5.08246 42.8681C5.18916 42.7525 5.32036 42.6617 5.46671 42.602C5.61305 42.5423 5.77092 42.5153 5.92905 42.5228C6.20066 42.5117 6.46598 42.6056 6.66878 42.7844C6.76367 42.8723 6.83926 42.9785 6.89083 43.0965C6.9424 43.2145 6.96886 43.3417 6.96855 43.4702H6.42937C6.4278 43.3371 6.37436 43.2097 6.28018 43.1146C6.23365 43.0684 6.178 43.0322 6.1167 43.0082C6.0554 42.9842 5.98975 42.9729 5.92384 42.9751C5.84145 42.971 5.7593 42.987 5.68464 43.0217C5.60997 43.0563 5.54509 43.1086 5.49569 43.1739C5.38205 43.3542 5.32853 43.5651 5.34268 43.777V43.8675C5.32707 44.0812 5.37921 44.2944 5.49187 44.4775C5.54121 44.544 5.60653 44.5973 5.68195 44.6326C5.75737 44.668 5.8405 44.6841 5.92384 44.6798L5.9235 44.6794ZM8.87859 44.6794C9.00847 44.684 9.13533 44.6401 9.23388 44.5563C9.27897 44.5187 9.31564 44.4722 9.34157 44.4197C9.36749 44.3673 9.3821 44.3102 9.38446 44.2519H9.92295C9.91654 44.4088 9.86517 44.5608 9.7748 44.69C9.67965 44.8276 9.54991 44.9383 9.39834 45.0113C9.23936 45.0905 9.06357 45.1312 8.88553 45.1299C8.72766 45.1372 8.5701 45.1102 8.42387 45.051C8.27764 44.9918 8.14627 44.9017 8.03894 44.7871C7.8178 44.5229 7.70622 44.1858 7.72667 43.8435V43.7873C7.70978 43.4533 7.82063 43.1251 8.0372 42.8681C8.1439 42.7525 8.27511 42.6617 8.42145 42.602C8.56779 42.5423 8.72566 42.5153 8.88379 42.5228C9.15505 42.5113 9.4202 42.6045 9.62317 42.7827C9.71807 42.8706 9.79366 42.9768 9.84523 43.0948C9.8968 43.2127 9.92326 43.3399 9.92295 43.4684H9.38446C9.38289 43.3354 9.32945 43.208 9.23527 43.1129C9.18874 43.0667 9.13309 43.0305 9.07179 43.0065C9.01049 42.9825 8.94484 42.9712 8.87894 42.9734C8.79654 42.9693 8.71439 42.9853 8.63973 43.02C8.56507 43.0546 8.50018 43.1069 8.45078 43.1722C8.33679 43.3529 8.28325 43.5645 8.29777 43.777V43.8675C8.28216 44.0812 8.33431 44.2944 8.44697 44.4775C8.49627 44.5439 8.56154 44.5972 8.63689 44.6326C8.71224 44.6679 8.79531 44.6837 8.87859 44.6794ZM10.6811 43.8031C10.6775 43.5728 10.7282 43.3448 10.8292 43.1372C10.92 42.9484 11.0647 42.79 11.2456 42.6816C11.4322 42.5734 11.6455 42.5184 11.8618 42.5225C12.0166 42.5165 12.171 42.5425 12.315 42.599C12.459 42.6554 12.5894 42.741 12.698 42.8503C12.9196 43.0869 13.0434 43.397 13.0449 43.7194L13.0474 43.8518C13.0514 44.0814 13.0019 44.3089 12.9027 44.5166C12.8129 44.7047 12.6689 44.8625 12.4888 44.9702C12.3004 45.0794 12.085 45.135 11.8666 45.1306C11.7054 45.1374 11.5447 45.1091 11.3957 45.0479C11.2468 44.9866 11.1132 44.8939 11.0044 44.7761C10.7792 44.5131 10.6636 44.1753 10.6811 43.8312V43.8031ZM11.2525 43.8518C11.2401 44.0663 11.2969 44.2791 11.4149 44.4596C11.4656 44.5305 11.5335 44.5877 11.6122 44.626C11.691 44.6644 11.7782 44.6828 11.866 44.6794C11.9541 44.6831 12.0418 44.6645 12.1207 44.6254C12.1996 44.5864 12.2671 44.5282 12.317 44.4562C12.4368 44.2604 12.493 44.0331 12.478 43.8048C12.4896 43.591 12.4315 43.3791 12.3121 43.2003C12.2617 43.129 12.194 43.0712 12.1152 43.0322C12.0365 42.9933 11.9491 42.9743 11.8611 42.9771C11.7744 42.9746 11.6884 42.9934 11.6109 43.0317C11.5333 43.0701 11.4666 43.1268 11.4166 43.1969C11.2935 43.3929 11.2361 43.6223 11.2525 43.8524V43.8518ZM13.9862 42.5688H14.5577V44.6342H15.5504V42.5702H16.1218V44.6342H16.4688L16.4202 45.8304H15.8998V45.0843H13.9866L13.9862 42.5688ZM18.8909 42.5688H19.4603V45.0843H18.8913V43.406L17.8941 45.0843H17.3247V42.5695H17.8941V44.2474L18.8909 42.5688ZM22.0226 45.0843C21.9896 45.0095 21.9674 44.9304 21.9567 44.8495C21.8716 44.9401 21.7682 45.012 21.6531 45.0604C21.538 45.1089 21.4139 45.1328 21.2888 45.1306C21.0604 45.1398 20.837 45.0625 20.6643 44.9146C20.5867 44.8485 20.5247 44.7664 20.4827 44.674C20.4407 44.5817 20.4198 44.4813 20.4214 44.3801C20.4152 44.2605 20.4396 44.1414 20.4922 44.0335C20.5448 43.9257 20.624 43.8326 20.7226 43.763C20.9811 43.6043 21.2831 43.5292 21.5868 43.548H21.9369V43.3827C21.9426 43.2682 21.9029 43.1561 21.8262 43.07C21.7817 43.0283 21.7287 42.9963 21.6708 42.9761C21.6128 42.9559 21.5513 42.948 21.49 42.9528C21.3754 42.9479 21.2625 42.9819 21.1701 43.0491C21.1311 43.0772 21.0994 43.1141 21.0777 43.1567C21.056 43.1994 21.045 43.2466 21.0456 43.2943H20.4752C20.4761 43.1535 20.525 43.0172 20.614 42.9072C20.7128 42.7822 20.8429 42.6849 20.9914 42.6247C21.1599 42.5545 21.3412 42.5195 21.524 42.5218C21.7809 42.5086 22.0339 42.5873 22.2367 42.7436C22.3262 42.8211 22.3971 42.9173 22.4443 43.0253C22.4915 43.1332 22.5137 43.2502 22.5094 43.3676V44.5018C22.5013 44.6878 22.5342 44.8734 22.6059 45.0456V45.085L22.0226 45.0843ZM21.3946 44.6777C21.5062 44.6781 21.616 44.6501 21.7135 44.5964C21.8083 44.5468 21.8863 44.4709 21.938 44.378V43.9035H21.6299C21.4633 43.8924 21.2971 43.9305 21.1524 44.0129C21.1012 44.0465 21.0596 44.0925 21.0316 44.1465C21.0036 44.2005 20.9901 44.2608 20.9925 44.3215C20.9903 44.37 20.999 44.4183 21.0179 44.4631C21.0368 44.5079 21.0654 44.5481 21.1018 44.5807C21.1836 44.6482 21.2882 44.6827 21.3946 44.6774V44.6777ZM23.5642 42.5695H24.1356V44.6342H25.129V42.5702H25.7004V44.6342H26.0474L26.0002 45.8311H25.4798V45.0843H23.5642V42.5695ZM28.4689 42.5695H29.0382V45.0843H28.4689V43.406L27.4717 45.0843H26.9023V42.5695H27.4717V44.2474L28.4689 42.5695ZM32.1175 42.5695V45.0843H31.5478V44.1614H31.0145L30.4722 45.0843H29.8786L30.4785 44.0684C30.3331 44.0124 30.2075 43.9155 30.1173 43.7897C30.0329 43.6672 29.9889 43.522 29.9913 43.3738C29.9889 43.2635 30.0124 43.1541 30.06 43.0543C30.1075 42.9545 30.1779 42.8669 30.2654 42.7985C30.4775 42.6393 30.7391 42.5583 31.0052 42.5695H32.1175ZM30.5631 43.3875C30.5617 43.4365 30.5717 43.485 30.5923 43.5296C30.6128 43.5741 30.6435 43.6133 30.6818 43.6443C30.768 43.7124 30.8762 43.7474 30.9864 43.7427H31.5478V43.0179H31.0218C30.9013 43.0117 30.7826 43.0489 30.6877 43.1225C30.6479 43.1544 30.616 43.1948 30.5944 43.2408C30.5728 43.2867 30.5621 43.3369 30.5631 43.3875ZM37.1017 43.8267V45.0843H36.5066V41.7003H37.8168C38.1472 41.6829 38.4724 41.7882 38.7282 41.9955C38.8395 42.0929 38.9275 42.2135 38.9859 42.3485C39.0443 42.4836 39.0716 42.6298 39.0658 42.7766C39.0737 42.9218 39.0481 43.067 38.9909 43.2011C38.9336 43.3351 38.8463 43.4546 38.7355 43.5504C38.4704 43.7491 38.142 43.8473 37.8098 43.8271L37.1017 43.8267ZM37.1017 43.355H37.8168C37.9916 43.3673 38.1648 43.3147 38.3025 43.2075C38.3601 43.1527 38.4049 43.0862 38.4337 43.0125C38.4625 42.9388 38.4747 42.8598 38.4694 42.781C38.4733 42.7004 38.4603 42.6198 38.4311 42.5444C38.402 42.469 38.3574 42.4004 38.3001 42.3428C38.1733 42.2284 38.006 42.1679 37.8345 42.1745H37.1031L37.1017 43.355ZM39.8566 43.8034C39.853 43.5731 39.9037 43.3451 40.0047 43.1376C40.0955 42.9488 40.2402 42.7903 40.4211 42.6819C40.6077 42.5738 40.821 42.5187 41.0373 42.5228C41.1921 42.5168 41.3465 42.5429 41.4905 42.5993C41.6345 42.6558 41.765 42.7414 41.8735 42.8506C42.095 43.0873 42.2188 43.3974 42.2204 43.7198L42.2229 43.8521C42.2269 44.0817 42.1774 44.3092 42.0782 44.5169C41.9883 44.7049 41.8444 44.8626 41.6643 44.9702C41.4759 45.0794 41.2605 45.135 41.0422 45.1306C40.881 45.1373 40.7203 45.1091 40.5714 45.0478C40.4225 44.9866 40.289 44.8938 40.1803 44.7761C39.955 44.5131 39.8394 44.1753 39.8569 43.8312L39.8566 43.8034ZM40.428 43.8521C40.4156 44.0666 40.4724 44.2795 40.5904 44.46C40.6411 44.5308 40.709 44.588 40.7877 44.6264C40.8665 44.6648 40.9537 44.6831 41.0415 44.6798C41.1296 44.6834 41.2173 44.6648 41.2962 44.6258C41.3751 44.5867 41.4426 44.5285 41.4925 44.4566C41.6123 44.2608 41.6685 44.0334 41.6535 43.8051C41.6651 43.5913 41.607 43.3794 41.4877 43.2007C41.4372 43.1293 41.3695 43.0716 41.2908 43.0326C41.212 42.9936 41.1246 42.9747 41.0366 42.9775C40.9499 42.9749 40.8639 42.9937 40.7864 43.0321C40.7088 43.0704 40.6421 43.1272 40.5921 43.1972C40.4692 43.3932 40.4119 43.6225 40.4284 43.8524L40.428 43.8521ZM44.185 44.6794C44.3148 44.684 44.4417 44.6401 44.5402 44.5563C44.5853 44.5187 44.622 44.4722 44.6479 44.4197C44.6739 44.3673 44.6885 44.3102 44.6908 44.2519H45.2293C45.2229 44.4088 45.1715 44.5608 45.0812 44.69C44.9861 44.8279 44.8564 44.9388 44.7047 45.012C44.5457 45.0912 44.3699 45.1319 44.1919 45.1306C44.034 45.1378 43.8765 45.1109 43.7302 45.0517C43.584 44.9925 43.4526 44.9024 43.3453 44.7878C43.1242 44.5236 43.0126 44.1864 43.033 43.8442V43.7873C43.0161 43.4533 43.127 43.1251 43.3436 42.8681C43.4503 42.7525 43.5815 42.6617 43.7278 42.602C43.8742 42.5423 44.032 42.5153 44.1902 42.5228C44.4618 42.5117 44.7271 42.6056 44.9299 42.7844C45.0248 42.8723 45.1004 42.9785 45.1519 43.0965C45.2035 43.2145 45.23 43.3417 45.2297 43.4702H44.6912C44.6896 43.3371 44.6362 43.2097 44.542 43.1146C44.4954 43.0684 44.4398 43.0322 44.3785 43.0082C44.3172 42.9842 44.2516 42.9729 44.1856 42.9751C44.1033 42.971 44.0211 42.987 43.9464 43.0217C43.8718 43.0563 43.8069 43.1086 43.7575 43.1739C43.6438 43.3542 43.5903 43.5651 43.6045 43.777V43.8675C43.5889 44.0812 43.641 44.2944 43.7537 44.4775C43.803 44.5439 43.8682 44.5972 43.9436 44.6326C44.019 44.6679 44.102 44.6841 44.1853 44.6798L44.185 44.6794ZM47.14 44.6794C47.2699 44.684 47.3968 44.6401 47.4953 44.5563C47.5404 44.5187 47.5771 44.4722 47.603 44.4197C47.6289 44.3673 47.6436 44.3102 47.6459 44.2519H48.1844C48.178 44.4088 48.1266 44.5608 48.0363 44.69C47.9412 44.8279 47.8114 44.9388 47.6598 45.012C47.5008 45.0912 47.325 45.1319 47.147 45.1306C46.9891 45.1378 46.8316 45.1109 46.6853 45.0517C46.5391 44.9925 46.4077 44.9024 46.3004 44.7878C46.0793 44.5236 45.9677 44.1864 45.9881 43.8442V43.7873C45.9712 43.4533 46.0821 43.1251 46.2987 42.8681C46.4054 42.7525 46.5366 42.6617 46.6829 42.602C46.8292 42.5423 46.9871 42.5153 47.1453 42.5228C47.4169 42.5117 47.6822 42.6056 47.885 42.7844C47.9799 42.8723 48.0555 42.9785 48.107 43.0965C48.1586 43.2145 48.1851 43.3417 48.1847 43.4702H47.647C47.6454 43.3371 47.5919 43.2097 47.4978 43.1146C47.4512 43.0684 47.3956 43.0322 47.3343 43.0082C47.273 42.9842 47.2073 42.9729 47.1414 42.9751C47.059 42.971 46.9769 42.987 46.9022 43.0217C46.8276 43.0563 46.7627 43.1086 46.7133 43.1739C46.5996 43.3542 46.5461 43.5651 46.5603 43.777V43.8675C46.5447 44.0812 46.5968 44.2944 46.7095 44.4775C46.7587 44.5438 46.8239 44.5971 46.8991 44.6324C46.9743 44.6677 47.0572 44.684 47.1404 44.6798L47.14 44.6794ZM50.6385 42.5691H51.2079V45.0843H50.6385V43.406L49.6413 45.0843H49.0719V42.5695H49.6413V44.2474L50.6385 42.5691ZM53.8382 42.5691H54.4076V45.0843H53.8382V43.406L52.841 45.0843H52.2716V42.5695H52.841V44.2474L53.8382 42.5691ZM54.1064 41.6047C54.1094 41.694 54.0923 41.7829 54.0563 41.8649C54.0203 41.9469 53.9663 42.02 53.8982 42.0788C53.7434 42.2055 53.5462 42.2702 53.3455 42.2602C53.1448 42.2702 52.9476 42.2055 52.7928 42.0788C52.7247 42.02 52.6707 41.9469 52.6347 41.8649C52.5987 41.7829 52.5816 41.694 52.5846 41.6047H53.0128C53.0101 41.6482 53.0165 41.6919 53.0317 41.7329C53.0468 41.7739 53.0704 41.8114 53.1009 41.843C53.1337 41.8723 53.172 41.8948 53.2137 41.9094C53.2554 41.9239 53.2996 41.9301 53.3438 41.9276C53.3879 41.9303 53.4322 41.9242 53.4739 41.9097C53.5156 41.8951 53.554 41.8724 53.5866 41.843C53.6168 41.8112 53.6401 41.7737 53.6551 41.7327C53.6701 41.6917 53.6764 41.6482 53.6737 41.6047H54.1064ZM56.4945 44.6798C56.6244 44.6844 56.7513 44.6404 56.8498 44.5567C56.8949 44.519 56.9316 44.4725 56.9575 44.4201C56.9834 44.3677 56.9981 44.3105 57.0004 44.2522H57.5389C57.5325 44.4092 57.4811 44.5611 57.3907 44.6904C57.2957 44.8277 57.1663 44.9383 57.015 45.0113C56.856 45.0905 56.6802 45.1312 56.5022 45.1299C56.3443 45.1372 56.1867 45.1102 56.0405 45.051C55.8943 44.9918 55.7629 44.9017 55.6556 44.7871C55.4345 44.5229 55.3229 44.1858 55.3433 43.8435V43.7873C55.3264 43.4533 55.4373 43.1251 55.6538 42.8681C55.7606 42.7525 55.8918 42.6617 56.0381 42.602C56.1844 42.5423 56.3423 42.5153 56.5004 42.5228C56.7721 42.5117 57.0374 42.6056 57.2402 42.7844C57.3351 42.8723 57.4106 42.9785 57.4622 43.0965C57.5138 43.2145 57.5402 43.3417 57.5399 43.4702H57.0015C56.9999 43.3371 56.9464 43.2097 56.8523 43.1146C56.8057 43.0684 56.7501 43.0322 56.6888 43.0082C56.6275 42.9842 56.5618 42.9729 56.4959 42.9751C56.4135 42.971 56.3314 42.987 56.2567 43.0217C56.1821 43.0563 56.1172 43.1086 56.0678 43.1739C55.9541 43.3542 55.9006 43.5651 55.9148 43.777V43.8675C55.8992 44.0812 55.9513 44.2944 56.064 44.4775C56.1132 44.5438 56.1783 44.597 56.2534 44.6323C56.3286 44.6676 56.4114 44.6839 56.4945 44.6798ZM59.3084 44.0894H59.0191V45.0836H58.4476V42.5695H59.0191V43.5737H59.2706L59.9739 42.5695H60.6796L59.7598 43.7736L60.757 45.0843H60.0138L59.3084 44.0894ZM63.0938 42.5695H63.6632V45.0843H63.0938V43.406L62.0963 45.0843H61.5255V42.5695H62.0949V44.2474L63.0938 42.5695ZM65.6197 43.3968L66.1054 42.5695H66.7404L65.9618 43.8082L66.7647 45.0843H66.1332L65.6249 44.2227L65.1194 45.0843H64.4844L65.2887 43.8082L64.5125 42.5695H65.143L65.6197 43.3968ZM70.8818 45.0843V41.7003H71.8932C72.1749 41.6951 72.453 41.7641 72.6988 41.9002C72.9324 42.0327 73.1217 42.2298 73.2432 42.4673C73.3756 42.7282 73.4418 43.0169 73.4361 43.3087V43.4784C73.4425 43.7719 73.3759 44.0624 73.2421 44.3246C73.1185 44.5621 72.9261 44.758 72.6894 44.8872C72.4373 45.0221 72.1541 45.0901 71.8675 45.0847L70.8818 45.0843ZM71.4768 42.1745V44.615H71.865C71.9991 44.6232 72.1334 44.6014 72.2578 44.5513C72.3822 44.5012 72.4935 44.4241 72.5836 44.3256C72.7656 44.0873 72.8561 43.7929 72.839 43.4948V43.3066C72.8594 43.0068 72.7735 42.7093 72.5961 42.4652C72.5094 42.3666 72.4008 42.2891 72.2788 42.2387C72.1569 42.1883 72.0247 42.1665 71.8928 42.1748L71.4768 42.1745ZM75.0158 45.0843H74.4444V42.5695H75.0158V45.0843ZM74.409 41.9163C74.4077 41.8766 74.4145 41.8371 74.4289 41.8C74.4432 41.763 74.4649 41.7291 74.4926 41.7003C74.5242 41.6704 74.5617 41.6473 74.6028 41.6325C74.6439 41.6177 74.6877 41.6115 74.7313 41.6143C74.7751 41.6116 74.819 41.6178 74.8603 41.6326C74.9015 41.6474 74.9392 41.6705 74.9711 41.7003C74.9991 41.7289 75.021 41.7628 75.0355 41.7999C75.0501 41.837 75.0569 41.8766 75.0557 41.9163C75.0569 41.9556 75.05 41.9947 75.0354 42.0312C75.0209 42.0677 74.999 42.101 74.9711 42.1289C74.939 42.1584 74.9012 42.1811 74.86 42.1957C74.8188 42.2102 74.775 42.2163 74.7313 42.2136C74.6878 42.2164 74.6441 42.2104 74.603 42.1958C74.562 42.1812 74.5244 42.1585 74.4926 42.1289C74.4649 42.1009 74.4431 42.0676 74.4286 42.0311C74.4141 41.9946 74.4072 41.9555 74.4083 41.9163H74.409ZM75.9703 43.8082C75.9525 43.4742 76.0504 43.1442 76.2479 42.8726C76.334 42.7602 76.4461 42.6698 76.5748 42.609C76.7035 42.5482 76.845 42.5186 76.9876 42.5228C77.1174 42.5169 77.2468 42.5409 77.3657 42.5929C77.4845 42.6449 77.5894 42.7235 77.6722 42.8225L77.6982 42.5691H78.2145V45.0075C78.2219 45.1522 78.1979 45.2968 78.1441 45.4315C78.0902 45.5662 78.0077 45.688 77.9022 45.7886C77.67 45.988 77.3684 46.0905 77.0612 46.0745C76.8728 46.0741 76.6866 46.0348 76.5144 45.9593C76.3546 45.8962 76.2146 45.7923 76.1088 45.6583L76.3794 45.3188C76.4565 45.4159 76.5552 45.4942 76.6677 45.5477C76.7802 45.6012 76.9037 45.6284 77.0286 45.6274C77.1927 45.6364 77.3539 45.5818 77.4779 45.4752C77.5354 45.4165 77.5799 45.3464 77.6083 45.2697C77.6367 45.1929 77.6484 45.111 77.6427 45.0295V44.8587C77.5597 44.9491 77.4577 45.0203 77.3437 45.0672C77.2298 45.1142 77.1068 45.1359 76.9835 45.1306C76.8426 45.1331 76.7031 45.1026 76.5765 45.0415C76.4498 44.9805 76.3396 44.8907 76.2548 44.7795C76.0507 44.4973 75.9506 44.1545 75.971 43.8082H75.9703ZM76.5397 43.8569C76.5279 44.0669 76.5826 44.2753 76.6962 44.4531C76.744 44.5227 76.8089 44.5791 76.8848 44.6171C76.9607 44.6551 77.0452 44.6735 77.1302 44.6705C77.2351 44.6751 77.3391 44.65 77.4299 44.5981C77.5208 44.5463 77.5947 44.4698 77.643 44.3777V43.2713C77.5948 43.1807 77.5214 43.1056 77.4314 43.0549C77.3414 43.0042 77.2385 42.9801 77.1351 42.9854C77.049 42.9821 76.9635 43.0007 76.8867 43.0394C76.81 43.078 76.7445 43.1354 76.6965 43.2062C76.5793 43.4026 76.5244 43.6294 76.5397 43.8569ZM79.8428 45.084H79.2713V42.5695H79.8428V45.084ZM79.2359 41.916C79.2347 41.8763 79.2415 41.8368 79.2558 41.7997C79.2702 41.7626 79.2918 41.7287 79.3196 41.7C79.3511 41.6701 79.3887 41.647 79.4298 41.6322C79.4709 41.6173 79.5146 41.6111 79.5583 41.6139C79.6021 41.6112 79.646 41.6175 79.6872 41.6323C79.7285 41.6471 79.7662 41.6701 79.798 41.7C79.826 41.7286 79.848 41.7624 79.8625 41.7995C79.877 41.8366 79.8839 41.8762 79.8827 41.916C79.8838 41.9552 79.8769 41.9943 79.8624 42.0308C79.8478 42.0674 79.8259 42.1006 79.798 42.1286C79.766 42.158 79.7282 42.1808 79.687 42.1953C79.6458 42.2099 79.602 42.216 79.5583 42.2132C79.5147 42.2161 79.4711 42.21 79.43 42.1955C79.3889 42.1809 79.3513 42.1581 79.3196 42.1286C79.2921 42.1005 79.2705 42.0672 79.2562 42.0308C79.2419 41.9943 79.2351 41.9554 79.2363 41.9163L79.2359 41.916ZM81.6147 41.9578V42.5691H82.0658V42.9884H81.6147V44.3924C81.608 44.4664 81.6284 44.5403 81.6723 44.6006C81.7003 44.6247 81.733 44.6429 81.7684 44.6539C81.8038 44.6648 81.8412 44.6684 81.8781 44.6643C81.9454 44.6641 82.0124 44.6563 82.0779 44.641V45.0771C81.9555 45.1117 81.8288 45.1297 81.7015 45.1306C81.262 45.1306 81.0422 44.8912 81.0422 44.4123V42.9884H80.6235V42.5702H81.0422V41.9582L81.6147 41.9578ZM84.4543 45.084C84.4213 45.0091 84.3991 44.9301 84.3884 44.8491C84.3033 44.9398 84.1998 45.0116 84.0848 45.0601C83.9697 45.1085 83.8455 45.1324 83.7205 45.1303C83.492 45.1395 83.2687 45.0622 83.0959 44.9143C83.0183 44.8482 82.9563 44.7661 82.9144 44.6737C82.8724 44.5813 82.8515 44.481 82.8531 44.3798C82.847 44.2601 82.8715 44.1409 82.9243 44.033C82.9771 43.9252 83.0565 43.8322 83.1553 43.7626C83.4138 43.604 83.7158 43.5289 84.0195 43.5476H84.37V43.3827C84.3756 43.2682 84.3359 43.1561 84.2593 43.07C84.2147 43.0283 84.1617 42.9963 84.1038 42.9761C84.0459 42.9559 83.9843 42.948 83.9231 42.9528C83.8085 42.9479 83.6956 42.9819 83.6032 43.0491C83.5641 43.0772 83.5324 43.1141 83.5107 43.1567C83.4891 43.1994 83.4781 43.2466 83.4786 43.2943H82.9072C82.9081 43.1535 82.957 43.0172 83.046 42.9072C83.1448 42.7822 83.2749 42.6849 83.4235 42.6247C83.5919 42.5545 83.7732 42.5195 83.956 42.5218C84.2129 42.5086 84.4659 42.5873 84.6687 42.7436C84.7582 42.8211 84.8291 42.9173 84.8763 43.0253C84.9235 43.1332 84.9457 43.2502 84.9414 43.3676V44.5018C84.9336 44.6872 84.9666 44.872 85.0379 45.0435V45.083L84.4543 45.084ZM83.8263 44.6774C83.9379 44.6778 84.0477 44.6498 84.1451 44.5961C84.2399 44.5465 84.318 44.4706 84.3696 44.3777V43.9035H84.0615C83.8949 43.8924 83.7288 43.9305 83.5841 44.0129C83.5329 44.0465 83.4913 44.0925 83.4633 44.1465C83.4352 44.2005 83.4218 44.2608 83.4241 44.3215C83.422 44.37 83.4306 44.4183 83.4495 44.4631C83.4684 44.5079 83.4971 44.5481 83.5334 44.5807C83.6154 44.6482 83.7201 44.6828 83.8266 44.6774H83.8263ZM86.5812 45.084H86.0097V41.5142H86.5812V45.084ZM92.8751 44.2954H91.5487L91.2711 45.084H90.6531L91.9466 41.7H92.4806L93.7765 45.084H93.1555L92.8751 44.2954ZM91.7156 43.8212H92.7082L92.2121 42.4172L91.7156 43.8212ZM96.2368 43.0241H95.1314V45.0843H94.562V42.5695H96.2368V43.0241ZM98.1153 45.1306C97.9528 45.1372 97.7907 45.1105 97.6392 45.0523C97.4876 44.9942 97.3498 44.9057 97.2344 44.7926C97.1197 44.6726 97.0307 44.531 96.9726 44.3762C96.9146 44.2215 96.8888 44.0567 96.8968 43.8919V43.8233C96.8927 43.5908 96.943 43.3604 97.0439 43.1503C97.1345 42.9609 97.2777 42.8009 97.4568 42.6888C97.6342 42.5787 97.8399 42.5215 98.0494 42.5239C98.1996 42.5152 98.3499 42.5402 98.489 42.5969C98.628 42.6537 98.7524 42.7408 98.8526 42.8516C99.0566 43.1164 99.1573 43.4449 99.1364 43.777V44.0047H97.4734C97.4804 44.1888 97.5553 44.3641 97.684 44.4974C97.7449 44.5572 97.8176 44.6041 97.8974 44.6353C97.9773 44.6665 98.0628 44.6813 98.1486 44.6787C98.273 44.6814 98.3962 44.6543 98.5078 44.5999C98.6193 44.5455 98.716 44.4652 98.7895 44.366L99.0976 44.6564C98.9955 44.8068 98.8546 44.9276 98.6895 45.0062C98.5105 45.0912 98.3139 45.1338 98.1153 45.1306ZM98.0459 42.9761C97.9743 42.9736 97.903 42.9869 97.8373 43.0151C97.7716 43.0433 97.7131 43.0856 97.666 43.139C97.5606 43.2687 97.4963 43.4264 97.4814 43.5922H98.5705V43.5504C98.5704 43.3944 98.5164 43.2431 98.4175 43.1215C98.37 43.0723 98.3124 43.0339 98.2485 43.0088C98.1846 42.9838 98.116 42.9726 98.0473 42.9761H98.0459ZM102.169 45.0843H101.597V44.0684H100.607V45.0843H100.036V42.5695H100.607V43.6176H101.597V42.5695H102.169V45.0843ZM105.213 43.0179H104.388V45.0843H103.816V43.0179H103V42.5695H105.214L105.213 43.0179ZM107.072 44.6798C107.202 44.6844 107.329 44.6404 107.427 44.5567C107.473 44.519 107.509 44.4725 107.535 44.4201C107.561 44.3677 107.576 44.3105 107.578 44.2522H108.117C108.11 44.4092 108.059 44.5611 107.968 44.6904C107.873 44.8278 107.743 44.9384 107.592 45.0113C107.433 45.0905 107.257 45.1312 107.079 45.1299C106.921 45.1372 106.764 45.1102 106.617 45.051C106.471 44.9918 106.34 44.9017 106.233 44.7871C106.011 44.5229 105.9 44.1858 105.92 43.8435V43.7873C105.903 43.4533 106.014 43.1251 106.231 42.8681C106.337 42.7525 106.469 42.6617 106.615 42.602C106.761 42.5423 106.919 42.5153 107.077 42.5228C107.349 42.5117 107.614 42.6056 107.817 42.7844C107.912 42.8723 107.988 42.9785 108.039 43.0965C108.091 43.2145 108.117 43.3417 108.117 43.4702H107.578C107.577 43.3371 107.523 43.2097 107.429 43.1146C107.383 43.0684 107.327 43.0322 107.266 43.0082C107.204 42.9842 107.139 42.9729 107.073 42.9751C106.99 42.971 106.908 42.987 106.834 43.0217C106.759 43.0563 106.694 43.1086 106.645 43.1739C106.531 43.3542 106.478 43.5652 106.492 43.777V43.8675C106.476 44.0812 106.529 44.2944 106.641 44.4775C106.69 44.5438 106.756 44.5971 106.831 44.6324C106.906 44.6677 106.989 44.684 107.072 44.6798ZM110.985 43.0179H110.159V45.0843H109.587V43.0179H108.771V42.5695H110.984L110.985 43.0179ZM111.842 45.0843V42.5695H112.874C113.151 42.5522 113.427 42.6147 113.669 42.7495C113.756 42.8045 113.827 42.8813 113.875 42.972C113.923 43.0627 113.946 43.1643 113.942 43.2665C113.943 43.38 113.904 43.4905 113.832 43.5792C113.748 43.6794 113.635 43.7532 113.509 43.7918C113.66 43.8172 113.798 43.8893 113.904 43.9975C113.999 44.0964 114.052 44.2282 114.05 44.3647C114.056 44.4684 114.034 44.5719 113.989 44.6654C113.943 44.7588 113.874 44.8393 113.788 44.8992C113.561 45.0353 113.298 45.0994 113.034 45.083L111.842 45.0843ZM112.413 44.0129V44.6383H113.038C113.331 44.6383 113.477 44.5345 113.477 44.327C113.477 44.1194 113.329 44.0148 113.031 44.0132L112.413 44.0129ZM112.413 43.6083H112.883C113.207 43.6083 113.369 43.5138 113.369 43.3248C113.369 43.1264 113.216 43.0241 112.908 43.0179H112.412L112.413 43.6083Z" fill="white"/>
</g>
<defs>
<clipPath id="clip0_1581_2">
<rect width="115" height="46" fill="white"/>
</clipPath>
</defs>
</svg>
