<svg width="14" height="11" viewBox="0 0 14 11" fill="none" xmlns="http://www.w3.org/2000/svg">
<path d="M13.3075 2.97233L6.2851 9.99421C6.20385 10.0755 6.10738 10.1399 6.00121 10.1839C5.89503 10.2279 5.78124 10.2506 5.66631 10.2506C5.55139 10.2506 5.43759 10.2279 5.33142 10.1839C5.22525 10.1399 5.12878 10.0755 5.04752 9.99421L1.13081 6.05671C0.967002 5.89265 0.875 5.6703 0.875 5.43847C0.875 5.20663 0.967002 4.98428 1.13081 4.82022L2.44331 3.50772C2.60684 3.34415 2.82848 3.25198 3.05978 3.25136C3.29107 3.25075 3.5132 3.34174 3.6776 3.50444L5.68135 5.43327L5.68737 5.43929L10.7585 0.442488C10.9225 0.279185 11.1445 0.1875 11.376 0.1875C11.6074 0.1875 11.8294 0.279185 11.9934 0.442488L13.3059 1.73093C13.3878 1.81214 13.4529 1.90876 13.4974 2.01523C13.5419 2.1217 13.5648 2.23591 13.565 2.35129C13.5651 2.46667 13.5425 2.58094 13.4983 2.68752C13.4541 2.79411 13.3893 2.8909 13.3075 2.97233Z" fill="white"/>
</svg>
