<svg width="273" height="59" viewBox="0 0 273 59" fill="none" xmlns="http://www.w3.org/2000/svg">
<path d="M58.4949 26.9517V26.757C58.5021 21.2575 56.8156 15.8897 53.6654 11.386C50.5152 6.88233 46.0548 3.46217 40.8928 1.59219C35.7308 -0.277783 30.1186 -0.506493 24.8221 0.937277C19.5256 2.38105 14.8027 5.42697 11.2978 9.65943C9.12592 9.0971 6.82288 9.36423 4.83664 10.4089C2.85039 11.4535 1.32294 13.201 0.551365 15.3114C-0.220214 17.4218 -0.180765 19.7443 0.662042 21.8272C1.50485 23.9101 3.09076 25.6045 5.11133 26.5808C5.11133 26.6365 5.11133 26.6921 5.11133 26.7524C5.12029 32.5815 7.02682 38.2485 10.5416 42.8937C14.0564 47.5389 18.9877 50.9085 24.5871 52.4914C24.8093 54.2948 25.6845 55.9537 27.0467 57.1534C28.4088 58.3531 30.1631 59.0102 31.9767 58.9999C33.7903 58.9896 35.537 58.3127 36.8855 57.0976C38.2339 55.8825 39.0903 54.2138 39.2922 52.408C42.7501 51.3873 45.9667 49.6779 48.7495 47.382C51.5323 45.0862 53.824 42.2513 55.4873 39.047C55.8534 39.1163 56.2251 39.152 56.5978 39.1536C58.0879 39.1567 59.5298 38.6251 60.6627 37.6552C61.7955 36.6852 62.5443 35.341 62.7735 33.8659C63.0028 32.3907 62.6974 30.882 61.9126 29.6129C61.1278 28.3438 59.9154 27.3981 58.4949 26.9471M31.9304 46.752C32.9254 46.7511 33.8983 47.0459 34.726 47.5991C35.5537 48.1522 36.1991 48.939 36.5805 49.8597C36.9619 50.7804 37.0622 51.7938 36.8686 52.7716C36.6751 53.7495 36.1964 54.6478 35.4932 55.3531C34.79 56.0583 33.8938 56.5387 32.918 56.7335C31.9422 56.9283 30.9306 56.8288 30.0113 56.4475C29.0919 56.0663 28.3061 55.4204 27.7533 54.5915C27.2004 53.7627 26.9053 52.7882 26.9053 51.7914C26.9053 50.4557 27.4346 49.1746 28.3768 48.2297C29.3191 47.2847 30.5972 46.7533 31.9304 46.752ZM56.5978 36.7893C55.8298 36.7902 55.0787 36.5629 54.4397 36.136C53.8007 35.7092 53.3024 35.102 53.0078 34.3914C52.7133 33.6807 52.6357 32.8985 52.785 32.1437C52.9343 31.3889 53.3036 30.6954 53.8464 30.151C54.3891 29.6065 55.0809 29.2356 55.8341 29.0852C56.5873 28.9347 57.3681 29.0115 58.0777 29.3057C58.7874 29.6 59.394 30.0985 59.8208 30.7383C60.2475 31.378 60.4753 32.1302 60.4753 32.8997C60.4729 33.9297 60.0637 34.9169 59.3372 35.6457C58.6107 36.3745 57.6258 36.7856 56.5978 36.7893ZM47.2926 20.0997C47.2889 16.5782 45.891 13.202 43.4057 10.7119C40.9203 8.2218 37.5505 6.82125 34.0357 6.81757H24.5177L37.011 28.0087L39.0932 26.8822L28.6775 9.18192H34.0496C35.4806 9.18192 36.8976 9.46432 38.2197 10.013C39.5418 10.5617 40.7431 11.3659 41.7549 12.3797C42.7668 13.3935 43.5695 14.597 44.1171 15.9216C44.6647 17.2463 44.9466 18.666 44.9466 20.0997C44.9466 21.5334 44.6647 22.9531 44.1171 24.2777C43.5695 25.6024 42.7668 26.8059 41.7549 27.8197C40.7431 28.8335 39.5418 29.6377 38.2197 30.1864C36.8976 30.7351 35.4806 31.0175 34.0496 31.0175H27.0441V33.3818H34.0357C35.9325 33.3824 37.8066 32.9695 39.5282 32.1718L47.3944 45.4632C44.9558 47.513 42.1382 49.0615 39.1025 50.0204C38.6866 48.4269 37.7532 47.0174 36.4494 46.0142C35.1456 45.0109 33.5456 44.471 31.9016 44.4795C30.2577 44.488 28.6634 45.0444 27.37 46.0611C26.0766 47.0778 25.1577 48.4969 24.7583 50.0946C21.6323 49.1356 18.7295 47.5593 16.2212 45.4586L30.3155 21.0733L28.2795 19.8679L14.4443 43.8175C10.1137 39.418 7.62995 33.5235 7.50358 27.3458C8.00903 27.4372 8.52155 27.4837 9.03517 27.4848C11.0188 27.4881 12.9484 26.8369 14.5259 25.6319C16.1034 24.427 17.2411 22.7352 17.7634 20.8179C18.2856 18.9005 18.1633 16.8643 17.4154 15.0235C16.6676 13.1827 15.3356 11.6398 13.6253 10.633C16.8873 6.9266 21.1975 4.30214 25.9835 3.10817C30.7695 1.9142 35.8047 2.20723 40.4205 3.94832C45.0364 5.68941 49.0143 8.79618 51.8261 12.856C54.6379 16.9159 56.1504 21.7367 56.1628 26.6782C54.8535 26.7767 53.6084 27.2864 52.6049 28.1347C51.6013 28.9831 50.8903 30.1269 50.5731 31.4035C50.2558 32.6801 50.3485 34.0244 50.8378 35.2452C51.3271 36.466 52.1882 37.5011 53.2986 38.2033C52.2029 40.2586 50.821 42.1474 49.1943 43.8128L41.6058 30.9989C43.369 29.7815 44.8105 28.153 45.806 26.2535C46.8014 24.354 47.3212 22.2405 47.3203 20.0951M15.7168 18.4261C15.7177 19.7503 15.3266 21.0451 14.593 22.1466C13.8594 23.2481 12.8161 24.1068 11.5953 24.6142C10.3745 25.1216 9.0309 25.2548 7.73449 24.997C6.43807 24.7393 5.24709 24.1021 4.31218 23.166C3.37728 22.23 2.74046 21.0372 2.48227 19.7385C2.22408 18.4397 2.35613 17.0935 2.86171 15.87C3.36729 14.6465 4.22369 13.6007 5.32257 12.8649C6.42146 12.1291 7.71347 11.7364 9.03517 11.7364C10.8057 11.7388 12.5031 12.4443 13.7555 13.6982C15.0078 14.9521 15.7131 16.6522 15.7168 18.4261Z" fill="#43B7B7"/>
<path d="M83.3695 17.9627H97.0978C99.6365 17.8757 102.108 18.7879 103.976 20.5017C104.871 21.339 105.576 22.3572 106.044 23.488C106.512 24.6187 106.732 25.836 106.689 27.0583C106.737 28.2692 106.519 29.476 106.051 30.5945C105.582 31.7129 104.874 32.7161 103.976 33.5338C102.084 35.199 99.6213 36.0766 97.0978 35.985H88.6668V41.1573H83.4034L83.3695 17.9627ZM88.6329 22.7435V31.211H96.8875C98.0872 31.2698 99.2655 30.8796 100.191 30.1171C100.612 29.7304 100.942 29.2555 101.157 28.7265C101.371 28.1976 101.465 27.6278 101.432 27.0583C101.459 26.4774 101.362 25.8975 101.148 25.3565C100.934 24.8154 100.608 24.3254 100.191 23.9184C99.2884 23.1083 98.1012 22.686 96.8875 22.7435H88.6329Z" fill="white"/>
<path d="M110.269 17.9626H123.998C126.538 17.8767 129.011 18.7886 130.882 20.5015C131.777 21.3394 132.481 22.3577 132.949 23.4883C133.417 24.619 133.637 25.836 133.595 27.0581C133.595 30.5829 132.094 33.1533 129.091 34.7694L132.666 41.1437H126.941L124.228 35.9848H115.533V41.1572H110.269V17.9626ZM115.533 22.7433V31.2109H123.787C124.987 31.2697 126.165 30.8795 127.09 30.117C127.512 29.7303 127.842 29.2553 128.056 28.7264C128.271 28.1974 128.365 27.6276 128.332 27.0581C128.358 26.4773 128.262 25.8974 128.048 25.3563C127.834 24.8153 127.508 24.3252 127.09 23.9182C126.188 23.1082 125.001 22.6858 123.787 22.7433H115.533Z" fill="white"/>
<path d="M146.354 17.962H154.9L164.789 41.1566H159.207L157.688 37.6319H143.363L141.843 41.1566H136.207L146.354 17.962ZM149.637 22.6145L145.296 33.0537H155.653L151.448 22.6145H149.637Z" fill="white"/>
<path d="M168.162 17.962H173.127L187.059 33.5534V17.962H192.281V41.1431H187.276L173.337 25.5113V41.1431H168.162V17.962Z" fill="white"/>
<path d="M205.793 17.962H214.339L224.235 41.1566H218.68L217.161 37.6319H202.808L201.262 41.1566H195.625L205.793 17.962ZM209.082 22.6145L204.741 33.0537H215.099L210.886 22.6145H209.082Z" fill="white"/>
<path d="M244.988 17.962H239.725V41.1364H244.988V17.962Z" fill="white"/>
<path d="M248.363 17.962H272.563V22.6617H263.095V41.1431H257.831V22.6617H248.363V17.962Z" fill="white"/>
</svg>
